<?xml version="1.0" encoding="UTF-8" standalone="no"?>
<!DOCTYPE svg PUBLIC "-//W3C//DTD SVG 1.0//EN" "http://www.w3.org/TR/2001/PR-SVG-20010719/DTD/svg10.dtd">
<svg width="18cm" height="9cm" viewBox="368 278 353 163" xmlns="http://www.w3.org/2000/svg" xmlns:xlink="http://www.w3.org/1999/xlink">
  <g>
    <ellipse style="fill: #ffffff" cx="470" cy="310" rx="30" ry="30"/>
    <ellipse style="fill: none; fill-opacity:0; stroke-width: 2; stroke: #000000" cx="470" cy="310" rx="30" ry="30"/>
  </g>
  <g>
    <ellipse style="fill: #ffffff" cx="400" cy="410" rx="30" ry="30"/>
    <ellipse style="fill: none; fill-opacity:0; stroke-width: 2; stroke: #000000" cx="400" cy="410" rx="30" ry="30"/>
  </g>
  <g>
    <ellipse style="fill: #ffffff" cx="550" cy="410" rx="30" ry="30"/>
    <ellipse style="fill: none; fill-opacity:0; stroke-width: 2; stroke: #000000" cx="550" cy="410" rx="30" ry="30"/>
  </g>
  <text font-size="18.0622" style="fill: #000000;text-anchor:middle;font-family:sans-serif;font-style:normal;font-weight:normal" x="470" y="316.25">
    <tspan x="470" y="316.25">E</tspan>
  </text>
  <text font-size="18.0622" style="fill: #000000;text-anchor:middle;font-family:sans-serif;font-style:normal;font-weight:normal" x="400" y="416.25">
    <tspan x="400" y="416.25">G</tspan>
  </text>
  <text font-size="18.0622" style="fill: #000000;text-anchor:middle;font-family:sans-serif;font-style:normal;font-weight:normal" x="520" y="426.25">
    <tspan x="520" y="426.25"></tspan>
  </text>
  <text font-size="18.0622" style="fill: #000000;text-anchor:middle;font-family:sans-serif;font-style:normal;font-weight:normal" x="520" y="446.25">
    <tspan x="520" y="446.25"></tspan>
  </text>
  <text font-size="18.0622" style="fill: #000000;text-anchor:middle;font-family:sans-serif;font-style:normal;font-weight:normal" x="550" y="416.25">
    <tspan x="550" y="416.25">H</tspan>
  </text>
  <g>
    <line style="fill: none; fill-opacity:0; stroke-width: 2; stroke: #000000" x1="470" y1="340" x2="541.292" y2="375.646"/>
    <polygon style="fill: #000000" points="548,379 536.82,379 541.292,375.646 541.292,370.056 "/>
    <polygon style="fill: none; fill-opacity:0; stroke-width: 2; stroke: #000000" points="548,379 536.82,379 541.292,375.646 541.292,370.056 "/>
  </g>
  <g>
    <line style="fill: none; fill-opacity:0; stroke-width: 2; stroke: #000000" x1="470" y1="340" x2="408.453" y2="375.17"/>
    <polygon style="fill: #000000" points="401.941,378.891 408.143,369.588 408.453,375.17 413.105,378.27 "/>
    <polygon style="fill: none; fill-opacity:0; stroke-width: 2; stroke: #000000" points="401.941,378.891 408.143,369.588 408.453,375.17 413.105,378.27 "/>
  </g>
  <g>
    <ellipse style="fill: #ffffff" cx="690" cy="410" rx="30" ry="30"/>
    <ellipse style="fill: none; fill-opacity:0; stroke-width: 2; stroke: #000000" cx="690" cy="410" rx="30" ry="30"/>
  </g>
  <text font-size="12.8" style="fill: #000000;text-anchor:start;font-family:sans-serif;font-style:normal;font-weight:normal" x="120" y="340">
    <tspan x="120" y="340"></tspan>
  </text>
  <g>
    <line style="fill: none; fill-opacity:0; stroke-width: 2; stroke: #000000" x1="580" y1="410" x2="650.264" y2="410"/>
    <polygon style="fill: #000000" points="657.764,410 647.764,415 650.264,410 647.764,405 "/>
    <polygon style="fill: none; fill-opacity:0; stroke-width: 2; stroke: #000000" points="657.764,410 647.764,415 650.264,410 647.764,405 "/>
  </g>
  <text font-size="18.0622" style="fill: #000000;text-anchor:middle;font-family:sans-serif;font-style:normal;font-weight:normal" x="690" y="416.25">
    <tspan x="690" y="416.25">I</tspan>
  </text>
</svg>
