<?xml version="1.0" ?><svg height="32px" version="1.1" viewBox="0 0 32 32" width="32px" xmlns="http://www.w3.org/2000/svg" xmlns:sketch="http://www.bohemiancoding.com/sketch/ns" xmlns:xlink="http://www.w3.org/1999/xlink"><title/><desc/><defs/><g fill="none" fill-rule="evenodd" id="Page-1" stroke="none" stroke-width="1"><g fill="#157EFB" id="icon-86-document-list"><path d="M19,3 L9.0085302,3 C7.8992496,3 7,3.89833832 7,5.00732994 L7,27.9926701 C7,29.1012878 7.89092539,30 8.99742191,30 L24.0025781,30 C25.1057238,30 26,29.1090746 26,28.0025781 L26,11 L21.0059191,11 C19.8980806,11 19,10.1132936 19,9.00189865 L19,3 L19,3 Z M20,3 L20,8.99707067 C20,9.55097324 20.4509752,10 20.990778,10 L26,10 L20,3 L20,3 Z M15,14 L15,15 L23,15 L23,14 L15,14 L15,14 Z M10,13 L10,16 L13,16 L13,13 L10,13 L10,13 Z M11,14 L11,15 L12,15 L12,14 L11,14 L11,14 Z M10,18 L10,21 L13,21 L13,18 L10,18 L10,18 Z M11,19 L11,20 L12,20 L12,19 L11,19 L11,19 Z M15,19 L15,20 L23,20 L23,19 L15,19 L15,19 Z M10,23 L10,26 L13,26 L13,23 L10,23 L10,23 Z M11,24 L11,25 L12,25 L12,24 L11,24 L11,24 Z M15,24 L15,25 L23,25 L23,24 L15,24 L15,24 Z" id="document-list"/></g></g></svg>